HIERARCHY
ROOT Hips
{
  OFFSET -69.4423 88.0299 51.6846
  CHANNELS 6 Xposition Yposition Zposition Zrotation Xrotation Yrotation
  JOINT Spine
  {
    OFFSET 12.0259 -0.162853 1.93176e-005
    CHANNELS 3 Zrotation Xrotation Yrotation
    JOINT Spine1
    {
      OFFSET 15.3169 -0.0121909 0
      CHANNELS 3 Zrotation Xrotation Yrotation
      JOINT Spine2
      {
        OFFSET 15.3176 -0.0121922 0
        CHANNELS 3 Zrotation Xrotation Yrotation
        JOINT Neck
        {
          OFFSET 19.9142 1.56236 0
          CHANNELS 3 Zrotation Xrotation Yrotation
          JOINT Head
          {
            OFFSET 6.92646 0 0
            CHANNELS 3 Zrotation Xrotation Yrotation
            End Site
            {
              OFFSET 20.7666 0 0
            }
          }
          JOINT LeftShoulder
          {
            OFFSET -4.94072 -1.14703 8.14416
            CHANNELS 3 Zrotation Xrotation Yrotation
            JOINT LeftArm
            {
              OFFSET 14.108 0 -2.74767e-005
              CHANNELS 3 Zrotation Xrotation Yrotation
              JOINT LeftForeArm
              {
                OFFSET 28.5802 -0.0783412 -0.0284884
                CHANNELS 3 Zrotation Xrotation Yrotation
                JOINT LeftHand
                {
                  OFFSET 27.092 0 0
                  CHANNELS 3 Zrotation Xrotation Yrotation
                  End Site
                  {
                    OFFSET 9.55928 -0.186424 0.145352
                  }
                }
              }
            }
          }
          JOINT RightShoulder
          {
            OFFSET -7.15748 -1.33027 -6.24935
            CHANNELS 3 Zrotation Xrotation Yrotation
            JOINT RightArm
            {
              OFFSET 14.108 0 1.82997e-005
              CHANNELS 3 Zrotation Xrotation Yrotation
              JOINT RightForeArm
              {
                OFFSET 28.5802 -0.0707221 2.30684e-005
                CHANNELS 3 Zrotation Xrotation Yrotation
                JOINT RightHand
                {
                  OFFSET 27.092 0 -1.30073e-005
                  CHANNELS 3 Zrotation Xrotation Yrotation
                  End Site
                  {
                    OFFSET 9.55929 -0.186417 -0.145354
                  }
                }
              }
            }
          }
        }
      }
    }
  }
  JOINT LeftUpLeg
  {
    OFFSET 0.00499725 -0.534999 8.837
    CHANNELS 3 Zrotation Xrotation Yrotation
    JOINT LeftLeg
    {
      OFFSET 39.9035 -0.00124594 0.000252775
      CHANNELS 3 Zrotation Xrotation Yrotation
      JOINT LeftFoot
      {
        OFFSET 39.6689 0 0
        CHANNELS 3 Zrotation Xrotation Yrotation
        JOINT LeftToe
        {
          OFFSET 10.1624 13.6296 0
          CHANNELS 3 Zrotation Xrotation Yrotation
          End Site
          {
            OFFSET 8.38147 0 0
          }
        }
      }
    }
  }
  JOINT RightUpLeg
  {
    OFFSET 0.00499725 -0.535 -8.837
    CHANNELS 3 Zrotation Xrotation Yrotation
    JOINT RightLeg
    {
      OFFSET 39.9036 -0.000268477 0.000106433
      CHANNELS 3 Zrotation Xrotation Yrotation
      JOINT RightFoot
      {
        OFFSET 39.6689 1.17892e-005 0
        CHANNELS 3 Zrotation Xrotation Yrotation
        JOINT RightToe
        {
          OFFSET 10.1624 13.6296 0
          CHANNELS 3 Zrotation Xrotation Yrotation
          End Site
          {
            OFFSET 8.38147 0 0
          }
        }
      }
    }
  }
}
MOTION
Frames:	18
Frame Time:	0.0333333
-75.6505 88.557 73.7545 143.917 86.1958 -52.8721 0.865394 -0.271839 0.355096 1.73251 -0.537794 0.714427 1.7325 -0.537805 0.714416 -15.359 -3.38605 -14.9985 51.6135 -3.90308 14.0161 -167.39 -5.9991 -97.5066 -19.2234 3.36314 86.9112 -25.8453 3.05985 -16.4875 9.12749 -84.3516 11.4271 -167.334 -8.06734 71.0696 -14.3582 -2.80254 -84.2328 -26.4447 -3.61747 16.1442 2.36224 83.7154 -2.27032 -9.92578 -2.66589 -179.995 -21.3187 0.976234 -1.17832 0.490344 1.09276 0.277669 90 8.74653e-015 -2.38542e-015 -15.0631 -3.43131 -177.119 -31.9487 -0.510241 0.126441 4.46009 3.9224 -0.314701 90 -6.75868e-015 4.77083e-015 
-75.6562 88.6571 72.7716 159.899 86.2458 -68.6029 0.968431 -0.142379 0.369049 1.93778 -0.278011 0.740619 1.93778 -0.278016 0.740609 -14.9122 -2.56271 -14.388 52.6787 -2.99008 12.1533 -167.548 -4.87182 -97.1873 -20.3789 2.97257 86.8314 -26.5587 3.19571 -16.8766 10.1692 -84.8361 12.445 -167.513 -6.99561 71.4687 -14.4719 -2.88643 -83.9156 -27.4239 -3.86895 16.6483 2.53545 84.5642 -2.43874 -11.7395 -2.74264 179.857 -22.0845 0.968981 -1.15432 -0.393296 2.13308 0.361915 90 -4.77083e-015 7.95139e-016 -16.13 -3.8673 -177.408 -31.8196 -0.526099 0.133287 4.08103 4.37457 -0.222975 90 -6.75868e-015 -3.18055e-015 
-75.6226 88.7286 71.6888 179.187 86.0185 -87.2981 1.09173 -0.0973625 0.34334 2.18405 -0.187675 0.688623 2.18404 -0.187682 0.688609 -15.1831 -2.11085 -15.8309 53.6267 -1.03871 13.5596 -167.326 -4.9041 -98.7235 -21.3134 2.88245 87.0131 -27.8123 3.43907 -17.5406 11.037 -85.5711 13.2623 -167.311 -7.07561 70.0466 -15.0963 -3.06961 -83.4127 -28.2302 -4.08137 17.0685 3.98567 86.5937 -3.92055 -13.6334 -2.81843 179.37 -23.0891 0.959961 -1.11997 -0.115077 2.78801 0.436063 90 8.94531e-015 -0 -17.2878 -3.85023 -177.934 -31.8213 -0.532194 0.134712 3.50945 5.50579 -0.0268626 90 -5.56597e-015 -6.36111e-015 
-75.6584 88.7741 70.6336 -162.422 85.7837 -106.065 1.34829 0.0322668 0.478777 2.69626 0.0762734 0.956821 2.69625 0.0762644 0.956817 -14.5276 -1.39213 -14.0058 53.7802 -1.60414 9.85984 -167.6 -3.48511 -97.2771 -22.9644 2.91535 86.8772 -29.3444 3.75217 -18.3193 12.6565 -86.3533 14.9248 -167.581 -5.65176 71.652 -14.883 -3.47061 -83.307 -29.9139 -4.54672 17.9244 4.68268 87.0253 -4.63088 -15.4193 -3.42995 179.837 -25.1317 0.954973 -1.06752 1.48871 4.07811 0.569129 90 -7.35503e-015 -7.15625e-015 -17.7443 -4.82282 -177.793 -31.2761 -0.530991 0.134968 2.61948 5.73084 0.137753 90 7.15625e-015 -3.18055e-015 
-75.7212 88.9239 69.6213 -150.694 85.5774 -118.065 1.61078 0.178514 0.572199 3.21973 0.373505 1.13932 3.21971 0.373503 1.1393 -14.9174 -0.595195 -12.882 55.2893 -1.17448 7.64209 -166.951 -2.45694 -96.4185 -23.8661 2.82304 86.6944 -30.4862 3.99199 -18.8959 13.4113 -86.8007 15.6629 -166.932 -4.62703 72.6136 -14.785 -3.56448 -83.1015 -31.1432 -4.89581 18.5378 4.70176 87.0142 -4.67426 -16.622 -3.28855 -179.709 -28.1026 0.941274 -0.960204 3.00532 5.09365 0.604591 90 -3.57812e-015 -3.18055e-015 -17.8892 -5.59203 -177.673 -30.6906 -0.524953 0.135744 1.21997 5.84997 0.381266 90 -2.5842e-014 4.77083e-015 
-75.7452 89.0616 68.6918 -142.495 85.5254 -126.277 1.79764 0.331869 0.623526 3.59169 0.683627 1.23651 3.59166 0.683616 1.23649 -15.0069 -0.274381 -13.4472 57.2115 0.264162 8.39166 -166.826 -2.34202 -97.0546 -24.3396 2.89133 86.7379 -31.0676 4.11449 -19.1896 14.6154 -87.0761 16.8265 -166.787 -4.52779 71.9852 -14.9578 -2.79928 -82.0282 -30.2078 -4.62541 18.0487 4.4842 86.8557 -4.42713 -17.5877 -2.93275 -179.543 -32.8903 0.929475 -0.798809 4.55448 5.70648 0.536748 90 3.18055e-015 -1.59028e-015 -17.7416 -5.77945 -177.785 -29.7553 -0.516546 0.138729 0.20854 5.78375 0.547142 90 -7.55382e-015 9.54166e-015 
-75.6853 89.3157 67.7562 -133.995 85.3101 -134.715 1.86501 0.402254 0.639183 3.72558 0.825596 1.26825 3.72559 0.82559 1.26822 -14.5197 0.235026 -13.0966 58.1717 1.10562 7.47023 -167.185 -1.66221 -96.8934 -24.1924 3.65102 87.0193 -31.6751 4.26392 -19.4722 13.6918 -87.4775 16.1218 -167.11 -3.79173 72.1839 -14.3654 -2.53336 -81.6258 -29.8418 -4.53091 17.8635 3.68417 85.9514 -3.62196 -17.7357 -3.39687 -179.591 -37.8767 0.908338 -0.589535 4.38584 5.77136 0.461139 90 4.37326e-015 1.59028e-015 -17.4274 -6.20724 -178.111 -28.5233 -0.508234 0.150882 -1.00823 5.69649 0.749133 90 3.57812e-015 -4.77083e-015 
-75.503 89.5954 66.8609 -128.195 85.3584 -140.292 1.94057 0.504467 0.631371 3.87571 1.03048 1.24555 3.8757 1.03047 1.24553 -13.7775 0.955036 -11.789 57.9159 1.26845 4.90431 -167.702 -0.446075 -95.8037 -23.5528 3.99833 87.2773 -31.397 4.20272 -19.3136 14.2991 -87.5206 16.7474 -167.606 -2.50298 73.2475 -13.6661 -2.51648 -81.5078 -30.0571 -4.59657 17.9725 3.94167 86.1595 -3.88275 -17.4421 -3.92265 -179.814 -42.7379 0.909036 -0.396139 3.41189 6.34358 0.42343 90 -1.39149e-014 -7.95139e-015 -17.0332 -6.65411 -178.731 -27.2638 -0.501378 0.168867 -2.13973 5.07225 0.831612 90 -2.38542e-015 7.95139e-015 
-75.28 89.8156 65.9261 -126.6 85.6223 -141.76 1.94631 0.653268 0.593462 3.88613 1.32678 1.16465 3.88613 1.32677 1.16463 -13.3156 1.80987 -10.7759 58.3601 2.26665 3.04281 -167.974 0.714622 -94.9806 -23.0454 4.79496 87.2378 -30.7065 4.04784 -18.9263 13.9737 -87.5226 16.5107 -167.856 -1.25067 74.0275 -13.0816 -2.44555 -81.5583 -30.0745 -4.60459 17.9785 4.81769 86.8764 -4.763 -16.3281 -4.56823 -179.88 -46.1553 0.904656 -0.226332 1.44685 7.86094 0.52369 90 -1.59028e-014 -3.18055e-015 -17.0851 -6.67746 -179.132 -26.4185 -0.488778 0.185142 -3.16646 4.55851 0.889927 90 -2.10712e-014 -3.97569e-015 
-75.0774 89.9536 64.9745 -128.447 86.3086 -139.816 1.91363 0.824503 0.592062 3.81928 1.66877 1.15658 3.81926 1.66877 1.15657 -12.916 2.88428 -10.0551 58.9295 3.57453 0.986841 -168.171 2.01589 -94.4283 -21.172 5.11717 87.5269 -29.1727 3.71899 -18.1306 10.7054 -86.2551 13.1585 -168.06 0.133316 74.4731 -12.5968 -2.7673 -81.6003 -30.4716 -4.71777 18.1796 5.06252 87.0662 -5.0133 -14.4421 -5.016 -179.73 -48.2813 0.918151 -0.0805507 0.0253879 11.6913 0.830837 90 1.27222e-014 1.59028e-015 -17.0536 -6.45726 -179.378 -25.6522 -0.481702 0.208451 -4.12192 3.6726 0.828464 90 -1.68967e-014 -6.36111e-015 
-74.6462 89.9388 63.8666 -135.031 86.9378 -132.915 1.8627 0.922794 0.539248 3.71737 1.86309 1.04858 3.71736 1.86308 1.04856 -12.8893 4.07911 -9.65887 60.1505 5.59285 -0.459955 -167.989 3.26228 -94.2009 -19.6595 5.43011 87.5349 -27.5198 3.37713 -17.262 8.85613 -85.2451 11.2894 -167.894 1.46143 74.591 -12.9858 -3.09609 -81.5562 -30.8341 -4.82224 18.3628 6.14858 87.6152 -6.10537 -12.1878 -5.22487 -179.889 -48.6844 0.967834 0.0134915 -2.58284 16.1487 1.59147 90 2.06736e-014 1.11319e-014 -17.854 -6.35078 179.911 -25.6214 -0.462263 0.220163 -4.56269 2.42205 0.588728 90 -2.38542e-015 1.59028e-015 
-74.1424 89.7974 62.7601 -147.471 87.6932 -120.096 1.84078 0.974952 0.472253 3.67425 1.965 0.91327 3.67424 1.965 0.913261 -12.8748 5.26313 -9.23043 61.0712 7.44381 -2.04911 -167.803 4.50107 -93.9364 -17.955 5.75803 87.5606 -25.838 3.04509 -16.3675 7.08229 -83.7583 9.4509 -167.719 2.80089 74.7274 -13.1254 -3.01935 -81.4746 -31.0281 -4.87484 18.4558 5.81839 87.4841 -5.79044 -9.22576 -5.16877 179.781 -47.2556 1.04468 0.0446452 -5.98657 19.559 2.80614 90 -6.36111e-015 4.77083e-015 -18.6229 -6.18302 179.154 -26.0034 -0.444882 0.24241 -4.77761 1.11802 0.28964 90 -3.8763e-014 -3.18055e-015 
-73.6748 89.4504 61.3994 -174.233 88.172 -93.1762 1.76537 0.993907 0.434235 3.52399 1.99982 0.837995 3.52398 1.99981 0.837987 -12.581 6.34874 -8.3236 61.7276 8.74179 -4.13246 -167.964 5.82889 -93.1827 -16.2731 6.13316 87.6648 -24.2481 2.7582 -15.5165 6.10303 -82.407 8.52759 -167.889 4.21969 75.3748 -13.6814 -3.13899 -81.4332 -31.4095 -4.98681 18.6516 6.81922 87.8063 -6.79303 -5.25762 -5.06286 179.738 -43.5764 1.10468 0.0406496 -9.04892 22.0771 4.16167 90 3.18055e-015 9.54166e-015 -20.2017 -5.44987 178.837 -27.0695 -0.409587 0.256385 -5.2728 0.507995 0.164641 90 -1.78906e-015 7.95139e-016 
-73.1605 89.1553 59.8969 153.421 88.0316 -60.8207 1.65247 0.995656 0.397892 3.29875 2.00284 0.767217 3.29874 2.00284 0.767206 -12.2145 7.1766 -7.56631 62.1743 9.73166 -5.74708 -168.252 6.87331 -92.504 -14.9962 6.50948 87.5808 -22.6303 2.46514 -14.6471 5.3096 -81.3683 7.67495 -168.196 5.33879 75.9629 -13.6132 -3.21496 -81.6692 -31.8629 -5.13102 18.8864 6.23975 87.4027 -6.19296 -2.20421 -5.46269 179.643 -39.4138 1.20044 -0.0793488 -11.2552 22.8385 5.11221 90 2.22639e-014 2.70347e-014 -21.6946 -4.46137 178.737 -27.6569 -0.375859 0.274957 -6.10166 0.00169129 0.0775936 90 -1.64991e-014 1.74931e-014 
-72.515 88.792 58.177 131.29 87.4314 -38.4022 1.56316 0.914346 0.33245 3.12158 1.83791 0.640086 3.12157 1.83789 0.640081 -12.3263 7.99589 -7.26398 63.2481 11.0507 -6.7852 -168.042 7.72878 -92.3229 -14.6442 6.69905 87.6877 -21.2932 2.23669 -13.9346 5.41751 -81.0114 7.77675 -168.011 6.23863 76.0702 -13.9595 -3.30056 -81.7009 -32.3958 -5.29317 19.1577 8.74269 88.1286 -8.68746 1.16936 -6.47763 179.034 -33.3448 1.26415 -0.260205 -13.5201 21.8107 5.67563 90 0 7.95139e-015 -23.4154 -3.26124 178.367 -28.4737 -0.337878 0.299903 -7.0211 -0.446185 -0.00435995 90 -1.49089e-014 -1.59028e-014 
-71.6933 88.2017 56.1113 121.983 86.6083 -28.4306 1.4557 0.756795 0.177599 2.90942 1.51834 0.336107 2.90942 1.51833 0.336098 -12.1387 8.67269 -6.77798 63.5451 11.9929 -7.86424 -168.185 8.55488 -91.9319 -15.1124 6.85476 87.7749 -20.5546 2.1077 -13.5402 5.70383 -80.5174 7.97266 -168.176 7.07673 76.4507 -14.5744 -3.70611 -81.9679 -33.3598 -5.58748 19.643 11.2831 88.5609 -11.2198 4.23702 -7.70179 177.972 -26.074 1.29683 -0.460171 -13.4851 22.9359 5.96591 90 1.59028e-014 2.8625e-014 -26.0521 -2.18437 177.55 -30.0535 -0.287083 0.323883 -7.75811 -1.0936 -0.176113 90 1.59028e-015 -3.18055e-015 
-70.8089 87.7278 53.8188 114.23 85.2728 -20.1895 1.44867 0.724242 0.0366863 2.89834 1.44969 0.0551794 2.89833 1.44968 0.055158 -12.6003 9.21813 -6.26662 63.7277 12.6671 -8.69558 -167.682 9.2043 -91.5523 -15.7767 6.07402 87.508 -19.5496 1.94472 -13.0289 5.84887 -79.9643 8.05792 -167.719 7.65174 76.7762 -15.0906 -3.41208 -82.0937 -34.0893 -5.8215 20.0167 23.108 89.2771 -23.0656 6.08633 -8.31445 176.796 -22.5084 1.25757 -0.56961 -7.02694 21.3475 3.57009 90 -6.36111e-015 -0 -28.2384 -1.14175 177.033 -30.3881 -0.252549 0.345963 -9.31344 -1.98661 -0.410805 90 -2.46493e-014 5.56597e-015 
-69.825 87.4171 51.2556 111.454 84.1019 -16.9995 1.47423 0.590884 -0.0715677 2.94945 1.18024 -0.158198 2.94944 1.18023 -0.158203 -12.8126 9.85604 -5.67826 63.4908 13.3546 -9.81041 -167.422 10.0354 -91.1028 -16.6132 4.78409 87.1658 -18.7567 1.8172 -12.6479 5.63682 -78.0162 7.63836 -167.522 8.35023 77.1963 -16.0361 -3.53635 -82.2426 -35.232 -6.19458 20.5929 109.281 89.6837 -109.263 6.39896 -7.74368 175.324 -20.0445 1.22441 -0.658914 -2.65749 18.5787 1.99364 90 -3.18055e-015 1.27222e-014 -29.8625 -0.112305 176.599 -29.2457 -0.227083 0.361066 -11.7084 -2.87682 -0.691354 90 -1.59028e-015 6.36111e-015 
